Coordinates
version=1
nRows=49
nColumns=12
inDegrees=yes

Units are S.I. units (second, meters, Newtons, ...)
Angles are in degrees

endheader
time	SC_y	SC_z	SC_x	AC_y	AC_z	AC_x	GH_y	GH_z	GH_yy	EL_x	PS_y
       0.0              -28.84         -1.972          23.37          57.15         -9.485        -0.9352          134.9         -19.69         -40.17          136.5          71.68
   0.02133              -28.84         -1.972          23.38          57.15         -9.486        -0.9371          134.8         -19.68         -40.15          136.5          71.68
   0.04265              -28.84         -1.973          23.39          57.15         -9.487        -0.9392          134.8         -19.67         -40.12          136.5          71.68
   0.06398              -28.85         -1.973           23.4          57.15         -9.489        -0.9414          134.7         -19.66          -40.1          136.5          71.68
   0.08531              -28.85         -1.974          23.41          57.15          -9.49        -0.9437          134.7         -19.65         -40.07          136.4          71.67
    0.1066              -28.86         -1.974          23.42          57.15         -9.492        -0.9462          134.6         -19.63         -40.04          136.4          71.67
     0.128              -28.86         -1.975          23.43          57.15         -9.493        -0.9489          134.6         -19.62         -40.01          136.4          71.67
    0.1493              -28.87         -1.975          23.44          57.15         -9.495        -0.9517          134.5          -19.6         -39.98          136.4          71.67
    0.1706              -28.87         -1.976          23.46          57.15         -9.497        -0.9548          134.5         -19.58         -39.94          136.4          71.67
    0.1919              -28.88         -1.977          23.47          57.15         -9.499        -0.9581          134.4         -19.56          -39.9          136.4          71.67
    0.2133              -28.89         -1.977          23.49          57.15         -9.501        -0.9616          134.3         -19.54         -39.86          136.4          71.66
    0.2346              -28.89         -1.978           23.5          57.14         -9.503        -0.9654          134.2         -19.52         -39.82          136.4          71.66
    0.2559               -28.9         -1.979          23.52          57.14         -9.505        -0.9694          134.2          -19.5         -39.77          136.4          71.66
    0.2773              -28.91          -1.98          23.54          57.14         -9.508        -0.9738          134.1         -19.47         -39.72          136.4          71.66
    0.2986              -28.92         -1.981          23.56          57.14         -9.511        -0.9786          134.0         -19.45         -39.66          136.4          71.65
    0.3199              -28.93         -1.982          23.58          57.14         -9.514        -0.9838          133.9         -19.42          -39.6          136.4          71.65
    0.3412              -28.94         -1.983          23.61          57.14         -9.517        -0.9894          133.8         -19.39         -39.54          136.4          71.65
    0.3626              -28.95         -1.984          23.63          57.14         -9.521        -0.9955          133.6         -19.35         -39.47          136.4          71.64
    0.3839              -28.97         -1.986          23.66          57.14         -9.525         -1.002          133.5         -19.31         -39.39          136.3          71.64
    0.4052              -28.98         -1.987           23.7          57.13         -9.529          -1.01          133.4         -19.27          -39.3          136.3          71.63
    0.4265              -28.99         -1.989          23.73          57.13         -9.534         -1.018          133.2         -19.22         -39.21          136.3          71.63
    0.4479              -29.01         -1.991          23.77          57.13         -9.539         -1.026          133.0         -19.17         -39.11          136.3          71.62
    0.4692              -29.03         -1.993          23.81          57.13         -9.545         -1.036          132.8         -19.12         -38.99          136.3          71.62
    0.4905              -29.05         -1.995          23.86          57.12         -9.552         -1.047          132.6         -19.06         -38.87          136.3          71.61
    0.5119              -29.07         -1.998          23.91          57.12         -9.559         -1.059          132.3         -18.99         -38.73          136.2           71.6
    0.5332               -29.1           -2.0          23.97          57.12         -9.567         -1.072          132.1         -18.91         -38.57          136.2          71.59
    0.5545              -29.13         -2.003          24.03          57.11         -9.576         -1.087          131.8         -18.83          -38.4          136.2          71.59
    0.5758              -29.16         -2.007          24.11          57.11         -9.586         -1.104          131.4         -18.73          -38.2          136.2          71.58
    0.5972               -29.2         -2.011          24.19           57.1         -9.597         -1.124          131.0         -18.62         -37.98          136.1          71.56
    0.6185              -29.24         -2.015          24.29           57.1          -9.61         -1.145          130.6          -18.5         -37.72          136.1          71.55
    0.6398              -29.29         -2.021          24.39          57.09         -9.625          -1.17          130.1         -18.35         -37.43          136.1          71.53
    0.6611              -29.34         -2.027          24.52          57.09         -9.642         -1.198          129.5         -18.19          -37.1          136.0          71.52
    0.6825              -29.41         -2.033          24.66          57.08         -9.662         -1.231          128.9         -18.01         -36.72          135.9           71.5
    0.7038              -29.48         -2.041          24.83          57.07         -9.685         -1.269          128.1         -17.79         -36.28          135.9          71.47
    0.7251              -29.56         -2.051          25.02          57.06         -9.711         -1.314          127.2         -17.53         -35.76          135.8          71.45
    0.7465              -29.67         -2.062          25.25          57.04         -9.743         -1.367          126.1         -17.23         -35.14          135.7          71.41
    0.7678              -29.79         -2.075          25.52          57.03          -9.78         -1.429          124.8         -16.88         -34.42          135.6          71.38
    0.7891              -29.93          -2.09          25.85          57.01         -9.825         -1.504          123.3         -16.45         -33.54          135.5          71.33
    0.8104               -30.1         -2.109          26.24          56.99         -9.879         -1.595          121.5         -15.93         -32.49          135.3          71.27
    0.8318              -30.32         -2.132          26.72          56.96         -9.945         -1.705          119.2          -15.3          -31.2          135.1          71.21
    0.8531              -30.58          -2.16          27.31          56.92         -10.03         -1.842          116.5         -14.52          -29.6          134.9          71.12
    0.8744              -30.91         -2.196          28.06          56.88         -10.13         -2.013          113.0         -13.55         -27.62          134.6          71.02
    0.8957              -31.32         -2.241          28.99          56.83         -10.26         -2.227          108.7         -12.32         -25.11          134.2          70.88
    0.9171              -31.84         -2.297          30.18          56.76         -10.42           -2.5          103.1         -10.77         -21.93          133.7          70.72
    0.9384              -32.52          -2.37          31.69          56.67         -10.63         -2.849          96.05         -8.773         -17.86          133.1           70.5
    0.9597              -33.38         -2.463          33.64          56.56          -10.9         -3.298          86.96         -6.216         -12.64          132.4          70.23
    0.9811              -34.48         -2.583          36.13          56.41         -11.24          -3.87          75.35         -2.949         -5.967          131.4          69.87
     1.002              -35.86         -2.732          39.26          56.23         -11.67          -4.59          60.76          1.159          2.424          130.1          69.43
     1.024              -37.55         -2.915          43.08          56.01         -12.19         -5.468          42.97          6.165          12.65          128.6          68.89
